<svg data-v-fde0c5aa="" xmlns="http://www.w3.org/2000/svg" viewBox="0 0 300 300" class="font"><!----><defs data-v-fde0c5aa=""><!----></defs><rect data-v-fde0c5aa="" fill="#B0BDA2" x="0" y="0" width="300px" height="300px" class="logo-background-square"></rect><defs data-v-fde0c5aa=""><!----></defs><g data-v-fde0c5aa="" id="5acadd00-cbfa-4b86-94bb-fe2cd0ee81d9" fill="#29474A" transform="matrix(2.6921193919936544,0,0,2.6921193919936544,39.05775814861709,130.6840428489645)"><path d="M1.97 10.35L0.35 10.88C0.44 11.48 0.76 11.95 1.29 12.29C1.82 12.64 2.49 12.81 3.29 12.81C4.10 12.81 4.77 12.61 5.29 12.22C5.80 11.83 6.06 11.35 6.06 10.78C6.06 10.23 5.89 9.79 5.55 9.47C5.21 9.15 4.76 8.89 4.21 8.68C4.08 8.63 3.92 8.58 3.72 8.51C3.53 8.45 3.38 8.40 3.28 8.36C3.17 8.32 3.07 8.27 2.95 8.22C2.84 8.16 2.76 8.11 2.72 8.05C2.67 7.99 2.65 7.93 2.65 7.85C2.65 7.52 2.86 7.35 3.28 7.35C3.73 7.35 4.13 7.59 4.47 8.06L5.94 7.56C5.52 6.49 4.60 5.95 3.19 5.95C2.45 5.95 1.86 6.12 1.42 6.45C0.98 6.79 0.76 7.26 0.76 7.85C0.76 8.79 1.40 9.45 2.67 9.86C3.14 10.01 3.50 10.15 3.75 10.29C4.00 10.43 4.13 10.59 4.13 10.78C4.13 11.15 3.85 11.34 3.29 11.34C2.63 11.34 2.19 11.01 1.97 10.35ZM7.90 8.15C8.09 8.01 8.39 7.87 8.80 7.73C9.21 7.59 9.61 7.52 10.02 7.52C10.88 7.52 11.31 7.80 11.31 8.37L11.31 9.02C10.79 8.75 10.12 8.61 9.30 8.61C9.03 8.61 8.75 8.65 8.48 8.72C8.20 8.80 7.93 8.91 7.67 9.07C7.40 9.23 7.18 9.46 7.01 9.75C6.85 10.04 6.76 10.39 6.76 10.78C6.76 11.41 6.99 11.89 7.44 12.23C7.89 12.57 8.52 12.74 9.32 12.74C10.30 12.74 10.97 12.41 11.31 11.75L11.31 12.60L13.20 12.60L13.20 7.98C13.20 7.31 12.92 6.80 12.35 6.46C11.78 6.12 11.00 5.95 10.02 5.95C9.50 5.95 9.00 6.04 8.52 6.22C8.04 6.39 7.65 6.59 7.35 6.80ZM8.67 10.58C8.67 10.08 9.13 9.83 10.05 9.83C10.53 9.83 10.95 9.90 11.31 10.04L11.31 10.08C11.31 10.51 11.17 10.82 10.88 11.03C10.59 11.23 10.21 11.33 9.74 11.33C9.42 11.33 9.16 11.26 8.96 11.13C8.76 11.00 8.67 10.82 8.67 10.58ZM16.77 8.82C16.77 8.38 16.91 8.05 17.18 7.82C17.45 7.59 17.79 7.48 18.20 7.48C18.55 7.48 18.81 7.57 18.98 7.76C19.14 7.95 19.22 8.26 19.22 8.68L19.22 12.60L21.11 12.60L21.11 8.26C21.11 7.57 20.91 7.02 20.51 6.61C20.11 6.21 19.57 6.01 18.90 6.01C17.94 6.01 17.23 6.41 16.77 7.22L16.77 6.16L14.88 6.16L14.88 12.60L16.77 12.60ZM22.37 9.38C22.37 10.50 22.68 11.34 23.30 11.90C23.91 12.46 24.69 12.74 25.63 12.74C26.67 12.74 27.45 12.30 27.97 11.41L27.97 12.60L29.86 12.60L29.86 1.68L27.97 1.68L27.97 7.35C27.45 6.46 26.67 6.02 25.63 6.02C24.69 6.02 23.91 6.30 23.30 6.86C22.68 7.42 22.37 8.26 22.37 9.38ZM24.28 9.38C24.28 8.89 24.45 8.48 24.80 8.17C25.15 7.86 25.59 7.70 26.12 7.70C26.66 7.70 27.10 7.84 27.45 8.11C27.80 8.39 27.97 8.81 27.97 9.38C27.97 9.95 27.80 10.37 27.45 10.65C27.10 10.92 26.66 11.06 26.12 11.06C25.57 11.06 25.13 10.92 24.79 10.63C24.45 10.35 24.28 9.93 24.28 9.38ZM35.43 3.71L36.15 2.20C36.03 2.03 35.81 1.88 35.51 1.74C35.21 1.61 34.86 1.54 34.45 1.54C33.61 1.54 32.97 1.76 32.51 2.19C32.05 2.63 31.82 3.20 31.82 3.92L31.82 6.16L30.91 6.16L30.91 7.77L31.82 7.77L31.82 12.60L33.71 12.60L33.71 7.77L35.32 7.77L35.32 6.16L33.71 6.16L33.71 4.27C33.71 3.91 33.79 3.64 33.94 3.47C34.10 3.30 34.29 3.22 34.52 3.22C34.93 3.22 35.24 3.38 35.43 3.71ZM35.87 9.38C35.87 10.44 36.23 11.28 36.97 11.89C37.70 12.50 38.58 12.81 39.62 12.81C40.66 12.81 41.54 12.50 42.27 11.89C43.01 11.28 43.37 10.44 43.37 9.38C43.37 8.32 43.01 7.48 42.27 6.87C41.54 6.26 40.66 5.95 39.62 5.95C38.58 5.95 37.70 6.26 36.97 6.87C36.23 7.48 35.87 8.32 35.87 9.38ZM37.77 9.38C37.77 8.84 37.94 8.40 38.28 8.06C38.61 7.73 39.06 7.56 39.62 7.56C40.18 7.56 40.63 7.73 40.96 8.06C41.30 8.40 41.47 8.84 41.47 9.38C41.47 9.92 41.30 10.36 40.96 10.70C40.63 11.03 40.18 11.20 39.62 11.20C39.06 11.20 38.61 11.03 38.28 10.70C37.94 10.36 37.77 9.92 37.77 9.38ZM48.68 8.15L49.64 6.64C49.30 6.22 48.78 6.01 48.09 6.01C47.46 6.01 46.91 6.35 46.45 7.03L46.45 6.16L44.49 6.16L44.49 12.60L46.45 12.60L46.45 9.02C46.45 8.57 46.54 8.26 46.73 8.09C46.91 7.91 47.20 7.83 47.60 7.83C48.02 7.83 48.38 7.93 48.68 8.15ZM51.04 3.92L51.04 6.16L49.99 6.16L49.99 7.77L51.04 7.77L51.04 12.60L52.93 12.60L52.93 7.77L53.98 7.77L53.98 6.16L52.93 6.16L52.93 3.92ZM56.31 9.38C56.31 8.83 56.49 8.41 56.85 8.11C57.21 7.82 57.69 7.67 58.30 7.67C58.73 7.67 59.16 7.77 59.56 7.96C59.97 8.15 60.25 8.37 60.40 8.62L60.40 6.50C59.78 6.13 59.03 5.95 58.16 5.95C57.00 5.95 56.07 6.26 55.38 6.88C54.68 7.50 54.33 8.33 54.33 9.38C54.33 10.43 54.68 11.26 55.38 11.88C56.07 12.50 57.00 12.81 58.16 12.81C59.15 12.81 59.89 12.63 60.40 12.26L60.40 10.12C60.24 10.39 59.97 10.62 59.59 10.81C59.21 10.99 58.78 11.09 58.30 11.09C57.69 11.09 57.21 10.94 56.85 10.65C56.49 10.35 56.31 9.93 56.31 9.38ZM62.51 8.15C62.71 8.01 63.01 7.87 63.41 7.73C63.82 7.59 64.23 7.52 64.64 7.52C65.50 7.52 65.93 7.80 65.93 8.37L65.93 9.02C65.40 8.75 64.73 8.61 63.91 8.61C63.64 8.61 63.37 8.65 63.09 8.72C62.82 8.80 62.55 8.91 62.28 9.07C62.01 9.23 61.80 9.46 61.63 9.75C61.46 10.04 61.38 10.39 61.38 10.78C61.38 11.41 61.60 11.89 62.06 12.23C62.51 12.57 63.14 12.74 63.94 12.74C64.92 12.74 65.58 12.41 65.93 11.75L65.93 12.60L67.82 12.60L67.82 7.98C67.82 7.31 67.53 6.80 66.96 6.46C66.39 6.12 65.62 5.95 64.64 5.95C64.12 5.95 63.61 6.04 63.13 6.22C62.65 6.39 62.26 6.59 61.96 6.80ZM63.28 10.58C63.28 10.08 63.74 9.83 64.67 9.83C65.14 9.83 65.56 9.90 65.93 10.04L65.93 10.08C65.93 10.51 65.78 10.82 65.49 11.03C65.20 11.23 64.82 11.33 64.36 11.33C64.03 11.33 63.77 11.26 63.57 11.13C63.38 11.00 63.28 10.82 63.28 10.58ZM73.68 8.15L74.65 6.64C74.30 6.22 73.78 6.01 73.09 6.01C72.46 6.01 71.91 6.35 71.46 7.03L71.46 6.16L69.50 6.16L69.50 12.60L71.46 12.60L71.46 9.02C71.46 8.57 71.55 8.26 71.73 8.09C71.91 7.91 72.20 7.83 72.60 7.83C73.02 7.83 73.38 7.93 73.68 8.15ZM80.08 8.62L76.96 8.62C77.03 8.22 77.23 7.91 77.55 7.69C77.86 7.46 78.22 7.35 78.61 7.35C79.47 7.35 79.96 7.77 80.08 8.62ZM76.94 9.87L82.04 9.87C82.06 9.69 82.07 9.49 82.07 9.25C82.07 8.25 81.76 7.44 81.13 6.85C80.50 6.25 79.66 5.95 78.61 5.95C77.54 5.95 76.67 6.27 76.00 6.92C75.33 7.57 75.00 8.39 75.00 9.38C75.00 10.38 75.32 11.19 75.96 11.81C76.60 12.43 77.48 12.74 78.61 12.74C80.24 12.74 81.37 12.10 81.98 10.82L80.19 10.42C79.90 10.99 79.38 11.27 78.61 11.27C77.66 11.27 77.10 10.80 76.94 9.87Z"></path></g><!----><!----></svg>